<svg xmlns="http://www.w3.org/2000/svg" width="287.315" height="378.645" viewBox="0 0 287.315 378.645">
  <g id="Group_607" data-name="Group 607" transform="translate(-2231.969 1059.208)">
    <path id="Path_5094" data-name="Path 5094" d="M2283.322-953.352l-2.325-.919c-.484,1.218.23,1.975.678,2.688a81.03,81.03,0,0,0,10.01,13.194c.372.386,1.5,1.17.671,1.438-2.094.676-.709,1.306-.243,2.066,3.811,6.2,9.161,10.9,14.917,15.182,1.527,1.137,3.113,2.2,4.785,3.369-1.725.9-2.965-.914-4.624.038a81.754,81.754,0,0,0,25.641,18.831l-4.57,1.351c2.883,1.94,5.537,3.64,6.465,6.866-11.793-2.157-22.5-2.445-25.318-.7.533.8,1.967.562,2.16,1.884a8.81,8.81,0,0,1-3.267-.082c-6.394-1.027-12.636.011-18.792,1.7-1.729.474-1.593,1.323.154,2.127-6.256.273-11.85,1.972-17.695,4.263l2.452,1.722c-1.322.207-2.406.326-3.465.552-3.584.763-6.659,2.552-9.743,4.491-4.691,2.949-10.017,4.49-15.37,6.05,10.544-1.058,18.853,6.64,29.2,6.9-2.121,1.833-.635,1.987.623,2.387,5.275,1.681,11.272-.444,16.195,3.113,1.142.825,2.541.477,3.843.561,5.971.386,11.8-.62,17.78-1.991-.444,1.131-1.7,1.228-1.71,2.554a58.177,58.177,0,0,0,24.773-4.653c.25,1.22-1.15,1.835-.582,3,3.065.289,5.672-1.612,8.752-1.952-.529,1.485-1.8,2.1-2.579,3.125a6.518,6.518,0,0,0-1.054,1.712c2.519,2.318-.963,2.055-1.4,3.014-.69,1.5-2.28,2.494-3.379,3.839a30.983,30.983,0,0,0-4.674,9.041c-1.3,3.43-3.713,6.154-4.695,10.12-1.306,5.279-2.679,10.918-5.83,15.693-.667,1.009-1.843,1.825-1.549,3.616a22.659,22.659,0,0,1,9.218-6.584c3.619-1.258,6.8-3.369,10.468-4.592,4.5-1.5,7.533-5.686,11.917-7.833,3.485-1.707,5.681-5.276,7.836-8.562.265-.4.585-1.144.975-.853,2.516,1.878,2.9-.99,3.674-1.888a41.592,41.592,0,0,0,7.161-11.092c.162-.391.559-1,.815-.985,1.95.112,2.438.014,3.188-1.493.831-1.668,1.486-3.423,2.536-5.887,0,9.872-.01,18.969.015,28.066a3.1,3.1,0,0,1-.946,2.137c-2.658,3.1-2.632,6.665.006,9.1,2.323,2.14,6.62,2.268,8.882.266,2.358-2.088,2.537-6.483.315-9.341a3.307,3.307,0,0,1-.956-2.137c.026-8.9.015-17.8.015-27.376,1.268,2.593,2.142,4.591,3.223,6.469.325.565.949,2.177,1.9.885,1-1.357,1.281-.312,1.367.253.32,2.1,1.71,3.653,2.744,5.328,1.971,3.2,4.064,6.374,7.935,8.975-.505-1.248-.954-1.91-.293-2.64a22.829,22.829,0,0,0,5.172,7.261c1.94,1.968,3.711,3.962,7.029,4.941,3.829,1.129,6.609,5.013,10.831,6.971,6.129,2.843,13.205,4.647,17.985,10.257-1.443-2.409-3.165-4.641-3.8-7.19-1.186-4.742-3.2-9.192-4.251-14.016-.974-4.451-4.431-8.1-6.077-12.523-1.4-3.759-4.881-6.126-7.611-8.965a13.335,13.335,0,0,1-1.023-1.372c2.9-1.128-.27-1.638-.3-2.494-.045-1.343-1.9-1.694-2.105-3.272,3.01.459,5.619,2.3,8.85,1.907-.381-.919-1.124-1.681-1.019-2.929,8.1,3.261,16.331,5.22,25.065,4.584-.158-1.308-1.85-.915-1.652-2.191a4.336,4.336,0,0,1,2.063.148,45.19,45.19,0,0,0,19.753.944c.544-.105,1.712-.025,1.4-.6-1.226-2.295.95-1.174,1.258-1.17a51.115,51.115,0,0,0,13.74-1.642c1.874-.493,1.347-1.022.016-2.031,10.458-.354,18.729-8.135,29.3-6.921-5.6-1.6-11.12-2.973-15.946-6.237-3.924-2.654-8.126-4.654-13.03-4.724.413-1.162,1.7-.845,2.545-1.712-5.565-2.789-11.383-3.57-17.174-4.47.054-.742,1.372-.221,1.15-1.1-.2-.772-1.047-.942-1.661-1.093a57.306,57.306,0,0,0-16.754-1.92c-1.61.084-3.169,1.274-4.885.317.376-1.187,1.787-.969,2.642-2.575-8.911-.177-17.447-.994-25.937,1.8.571-3.683,3.624-4.878,5.944-6.91a11.274,11.274,0,0,0-1.664-1.018,21.885,21.885,0,0,0-2.7-.575c10.473-4.548,18.481-11.03,26.014-18.655-2-.912-3.371.886-4.807-.121,9.861-6.662,22.272-19.088,20.279-20.525l-2.732.621c5.819-5.544,10.687-11.061,13.937-18.232l-3.572,1.323a31.959,31.959,0,0,0,7.476-11.63,54,54,0,0,1,6.956-14.282c1.532-2.124,3.229-4.13,4.853-6.189a1.136,1.136,0,0,0-1.017.2c-5.318,4.021-10.934,7.554-17.4,9.372a47.936,47.936,0,0,0-10.776,4.468c-1.235.7-1.8,2.476-3.487,2.42-.658-1.234,1.156-1.472.63-2.684a62.352,62.352,0,0,0-18.982,13.028l1.519-3.8c-9.571,4.929-16.359,12.077-22.457,20.067l1.172-5.133c-8.542,7.634-15.748,15.207-20.593,25.1-.438-1.514-.788-2.717-1.167-4.026l-2.127,1.512c.971-3.973,2.006-7.6,1.889-11.455-1.861-.3-2.343,2.211-4.289,1.968,4.217-11.616,5.041-23.652,4.759-36.26-1.909,1.53-2.09,3.765-4.1,4.639,2.3-9.276,2.638-28.211-.6-33.628-1.2.517-.384,2.429-2.019,2.8a69.14,69.14,0,0,0-3.5-24.908c-1.623.542-.84,2.539-2.552,3.2a30.756,30.756,0,0,0-4.1-16.866,66.985,66.985,0,0,1-6.051-17.2c-.515-2.231.265-4.716-1.421-6.855.171,6.167-1.424,11.883-3.53,17.433-2.946,7.764-8.061,14.842-7.382,23.81-.64-1.249-1.281-2.5-2.151-4.194a80.884,80.884,0,0,0-3.886,25.8c-1.3-.488-.508-2.469-2.077-3.069-3.2,10.921-2.177,21.913-.652,32.946-2.112-.376-1.675-2.98-3.466-3.557-.621,12.17.287,23.993,4.267,35.43a1.822,1.822,0,0,1-1.833-.505c-.667-.421-1.494-1.233-2.128-.815-.864.569-.189,1.569-.047,2.445a35.055,35.055,0,0,0,1.37,6.452,3.833,3.833,0,0,1-.093,1.462c-3.916-1.566-1.365,2.367-2.948,3.26a57.409,57.409,0,0,0-8.471-12.982c-3.471-4.012-6.928-8-11.3-11.22-.753,1.524,1.046,2.68-.161,4.013a71.763,71.763,0,0,0-19.041-18.317c-.645-.415-1.33-1.151-2.135-.812-1.04.438.848,1.365-.164,1.963a67.373,67.373,0,0,0-17.7-11.743c-.307,1.325,1.178,2.016.652,3.458a19.24,19.24,0,0,0-9.133-5.856c-8.375-2.687-16.521-5.686-23.431-11.478,1.913,2.53,3.6,5.117,5.441,7.573C2276.019-970.288,2276.225-960.019,2283.322-953.352Zm52.057,24.5c3.085.108,5.055,2.464,4.713,5.947a3.589,3.589,0,0,0,1.4,3.145c4.985,4.953,9.9,9.98,14.944,14.87,1.8,1.742,2.951,3.588,2.561,6.141-.307,2,.693,2.34,2.45,2.34s2.656-.338,2.482-2.344c-.167-1.921-.041-3.867-.035-5.8.013-4.209,2.571-7.029,6.869-7.121,1.967-.042,2.471-.7,2.323-2.492-.126-1.517.117-3.069-.051-4.578-.584-5.223.168-9.873,5.014-12.983,1.08-.693,1.141-1.785,1.138-2.956q-.041-13.749,0-27.5a3.038,3.038,0,0,0-1.535-2.956c-2.751-1.832-2.934-5.175-.717-7.616a4.933,4.933,0,0,1,7.205-.289c2.368,2.274,2.3,5.37-.37,7.564a4.215,4.215,0,0,0-1.566,3.7c.051,9.063-.021,18.129.06,27.192.019,2.093-.486,3.868-2.154,5.076-3.493,2.528-4.268,5.859-4.087,10.042.334,7.723.1,7.733,7.792,7.733q2.443,0,4.888,0c5.1.006,7.933,2.2,8.717,7.264.261,1.681.84,1.952,2.271,1.924,3.461-.068,6.926-.084,10.387,0,1.554.04,2.411-.431,2.083-2.054-1.3-6.434,1.838-10.828,6.518-14.594,1.183-.952,2.146-2.173,3.263-3.215,1.393-1.3,2.527-2.39,1.973-4.785-.6-2.589,2.521-5.323,5.372-5.324,3.114,0,5.063,2.233,4.891,5.6-.127,2.487-3.164,5.271-5.646,4.678a3.472,3.472,0,0,0-3.836,1.3c-2.667,2.8-5.427,5.518-8.2,8.217a2.944,2.944,0,0,0-.988,3.469c.8,2.345.291,4.84.292,7.264,0,1.708-1.137,2.479-2.821,2.47-2.24-.012-4.481,0-6.721,0s-4.49.125-6.72-.029c-2.655-.185-2.032,1.662-2,3.045.034,1.329-.75,3.538,1.907,3.053,4.626-.844,7.545,1.488,10.414,4.662,3.684,4.075,7.708,7.841,11.618,11.709,2.258,2.234,8.978,1.99,11.135-.353a5.108,5.108,0,0,1,7.739-.328c2.362,2.28,2.387,4.843.069,7.14-2.4,2.377-5.238,2.275-7.515-.475a3.636,3.636,0,0,0-3.7-1.517c-5.587,1.034-9.592-1.209-13.14-5.459-3.25-3.894-7.205-7.19-10.692-10.9-2.161-2.3-4.741-1.281-7.147-1.211-1.171.034-.677,1.495-.7,2.321-.181,6.345-1.278,7.812-7.506,9.738-.518.16-1.052.246-1.009.875.171,2.514-.812,5.084,1.636,7.341,4.938,4.553,9.552,9.455,14.315,14.2.743.74,1.257,1.407,2.776,1.027,2.426-.608,4.409.7,5.708,2.95,1.4,2.424.215,4.484-1.23,6.059-1.541,1.679-3.816,1.573-5.91.622a4.33,4.33,0,0,1-2.53-5.532c.5-1.621-.2-2.221-1.035-3.058-4.821-4.829-9.567-9.736-14.513-14.435-2.158-2.05-3.385-4.219-2.953-7.215.274-1.9-.121-2.952-2.5-2.924-2.2.025-2.424.941-2.417,2.74.019,5.256-.045,5.329-5.2,5.252a4.917,4.917,0,0,0-4.23,1.828,30.353,30.353,0,0,1-3.673,3.664,5.676,5.676,0,0,0-2.2,5c.146,3.378-1.925,5.4-5.106,5.43-2.554.021-5.311-2.819-5.187-5.342a5.335,5.335,0,0,1,5.78-4.944,3.9,3.9,0,0,0,3.859-1.508c1.538-1.628,3.254-3.1,4.717-4.785,1.5-1.73,3.144-2.787,5.521-2.373,1.884.328,2.135-.754,2.122-2.329-.012-1.616-.074-2.688-2.223-2.608-2.476.092-5.04.551-7.375-1.046-1.032-.706-2.247-1.36-2.556-2.469-.649-2.331-2.1-2.434-4.192-2.642-4.349-.434-7.733.744-10.237,4.34-3.659,5.254-8.659,7.178-14.94,6.189a47.2,47.2,0,0,0-4.882-.054c-2.074-.1-3.737.028-5.132,2.144-1.485,2.253-5,2.12-6.931.246-2.654-2.578-2.855-5.034-.443-7.336,2.295-2.19,5.253-2.471,7.093.022a4.547,4.547,0,0,0,4.323,1.919c4.375-.12,9.08.933,13.044-.354,3.985-1.294,6.371-5.755,9.523-8.758a4.007,4.007,0,0,1,3.207-1.337c1.827.1,3.664.028,5.5.025,3.25-.006,4.184-1.286,3.352-4.444-.192-.73-.531-1.031-1.226-1.038q-1.222-.013-2.444-.018c-4.271-.018-4.411-.024-4.221-4.218a6.926,6.926,0,0,0-2.4-5.846c-4.872-4.628-9.554-9.455-14.291-14.225-1-1-1.843-1.721-3.559-1.47a5.54,5.54,0,0,1-6.055-5.065C2329.655-926.253,2332.58-928.949,2335.379-928.851Z" transform="translate(-5.395)" fill="#fff"/>
    <path id="Path_5095" data-name="Path 5095" d="M2351.827-585.365c-5.459-1.666-10.855-3.536-16.286-5.3-4.033-1.307-7.415-.437-9.74,3.151-1.214,1.875-2.332,1.288-3.388.578-.992-.668-3.448.073-2.566-2.844.742-2.454-.147-4.9-2.252-6.811-4.41-4-9.514-7.059-14.17-10.719-2.118-1.665-4.425-2.8-7.24-2.436a2.776,2.776,0,0,1-2.463-.872c-4.369-4.344-9.021-8.355-13.146-13a127.93,127.93,0,0,1-21.641-33.541,118.827,118.827,0,0,1-10.279-40.3c-.761-11.815-.943-23.776,2.137-35.449.339-1.285.095-2.149-1.444-2.806-3.893-1.661-8.058-2.434-11.975-3.967-1.475-.577-2.261-.112-2.546,1.431-.508,2.754-1.124,5.489-1.594,8.249-1.576,9.242-1.222,18.574-1.244,27.888a117.136,117.136,0,0,0,3.465,26.548,137.014,137.014,0,0,0,15.13,38.817,146.34,146.34,0,0,0,18.629,25.522,160.412,160.412,0,0,0,14.238,13.529,5.468,5.468,0,0,1,1.871,3.306,7.08,7.08,0,0,0,2.518,4.675c4.636,3.347,9.257,6.719,13.795,10.2,4.848,3.716,10.316,2.7,13.373-1.914.34-.513.695-1.411,1.134-1.266a53.333,53.333,0,0,1,5.827,2.359c1.663.779-.072,2.206.474,3.115-.2,3.657.892,6.765,4.306,8.048,5.808,2.183,11.762,3.991,17.711,5.772,1.662.5,3.63.37,4.18-1.873.545-2.227-.386-3.495-2.728-4.165-5.1-1.46-10.107-3.239-15.177-4.811A4.042,4.042,0,0,1,2329-575.39a1.242,1.242,0,0,1-.346-1.4c.405-.91.982-.26,1.488-.065a20.312,20.312,0,0,0,3.083,1.173c1.369.283,2.824.545,3.928-.814a3.293,3.293,0,0,0,.37-3.463c-.639-1.471-2.386-1.673-3.745-2.276-.936-.415-2.636-.45-2.325-1.736.307-1.266,1.942-.722,2.989-.644a12.331,12.331,0,0,1,2.578.79c4.4,1.369,8.673,3.109,13.17,4.2a2.959,2.959,0,0,0,3.915-2.164C2354.66-583.545,2353.8-584.765,2351.827-585.365Zm-40.866-6.269c-1.879-.815-3.294-.455-4.379,1.322-1.143,1.871.091,2.986,1.251,4.108.63.609,2.347.677,1.38,2.058-.859,1.228-2.035.769-3.158-.065-4.415-3.28-8.9-6.465-13.324-9.733-1.371-1.013-1.774-1.963-.546-3.753,4.44-6.476,4.35-6.579,10.6-2.276,3.209,2.208,6.328,4.547,9.5,6.8a2.716,2.716,0,0,1,1.221,2.189C2312.452-590.482,2311.745-591.294,2310.961-591.634Z" transform="translate(0 -124.153)" fill="#fff"/>
    <path id="Path_5096" data-name="Path 5096" d="M2622.315-738.393c-.334-1.718-1.087-1.688-2.276-1.316-3.632,1.136-7.234,2.371-10.886,3.437-2.394.7-3.017,1.83-2.5,4.437a100.032,100.032,0,0,1,2.155,17.641,144.012,144.012,0,0,1-1.739,27.489,126.768,126.768,0,0,1-9.655,31.186c-4.74,10.363-10.413,20.223-18.225,28.643-6.4,6.893-11.391,15.512-21.515,17.982a5.049,5.049,0,0,0-1.482,1.01c-2.521,1.824-5.127,3.543-7.541,5.5-4.528,3.67-10.781,6.057-9.719,13.9.21,1.548-2.779,1.459-4.218,2.283-1.3.743-1.241-.918-1.652-1.528-1.553-2.3-5.1-4.254-7.509-3.554-6.056,1.765-12.06,3.707-18.067,5.637-2.178.7-3.2,2.415-2.445,4.5.753,2.069,2.669,1.947,4.512,1.353q7.148-2.307,14.313-4.567a8.429,8.429,0,0,1,2.551-.473c.536.006,1.32.281,1.4.974.085.736-.624.815-1.188,1.04a40.641,40.641,0,0,0-4.109,1.873c-1.382.74-2.1,1.806-1.477,3.508a2.58,2.58,0,0,0,3.3,1.89,32.732,32.732,0,0,0,4.259-1.422c.686-.266,1.4-.7,1.851.119.4.718-.168,1.3-.671,1.859a3.687,3.687,0,0,1-1.9.828c-4.862,1.563-9.7,3.192-14.569,4.738-2.091.664-3.885,1.613-3.214,4.169.745,2.838,3.156,2.255,5.012,1.706,5.375-1.588,10.691-3.387,16-5.2,4.344-1.482,6.145-4.867,5.2-9.395-.12-.573-.276-1.6-.054-1.712a36.254,36.254,0,0,1,6.259-2.775c1.148-.334,1.638,1.32,2.207,2.105a8.038,8.038,0,0,0,11,2.038c4.92-3.283,9.582-6.956,14.309-10.523,2.186-1.649,3.831-3.807,3.527-6.652-.189-1.766.736-2.605,1.764-3.465a134.3,134.3,0,0,0,19.173-19.83,142.1,142.1,0,0,0,23.551-43.481,141.083,141.083,0,0,0,7.3-46.819C2625.589-718.309,2624.266-728.375,2622.315-738.393ZM2561.7-590.507c-2.785,2.287-5.855,4.223-8.738,6.4a2.217,2.217,0,0,1-3.238-.074c-.692-.638-.747-1.361.183-1.554,2.948-.612,3.308-2.721,2.382-4.826-1.029-2.341-3.187-1.36-5.05-.852-.54.147-.991.829-2.175.059,2.921-3.292,6.686-5.281,9.885-7.936,1.535-1.273,3.413-2.142,4.9-3.457,1.528-1.348,2.5-.85,3.5.48.062.081.116.167.175.25C2569.193-594,2568.776-596.321,2561.7-590.507Z" transform="translate(-106.086 -124.154)" fill="#fff"/>
    <path id="Path_5097" data-name="Path 5097" d="M2470.668-538.5a5.038,5.038,0,0,1-3.842-3.382c-.618-1.587-1.547-3.052-2.319-4.581-1.974-3.909-5.229-5.231-9.154-3.44-6.669,3.042-13.292,6.188-19.893,9.377-4.907,2.371-5.952,5.724-3.559,10.643,1.493,3.069,2.856,6.2,4.368,9.263,1.4,2.833,2.206,6.119,5.46,7.637,1.172.547.7,1.467.546,2.34-1.37,7.679-2.607,15.384-4.171,23.023-.4,1.942.181,2.31,1.731,2.844,4.864,1.673,10,.782,14.762,1.943,5.431-.879,10.811-.626,16-2.032,1.761-.477,2.483-1.167,1.8-3.2-2.121-6.351-4.082-12.757-5.939-19.19a4.054,4.054,0,0,1-.058-3.127c3.137-6.714,5.257-13.83,7.944-20.721A5.692,5.692,0,0,0,2470.668-538.5Z" transform="translate(-77.263 -197.734)" fill="#fff"/>
    <path id="Path_5098" data-name="Path 5098" d="M2561.481-592.338c7.184-.257,14.46.881,21.539-.724,5.658-1.282,10.589-3.818,13.81-9.272,2.8-4.747,3-9.695,2.865-14.843-.27-10.038-7.723-17.447-17.24-19.121-6.63-1.166-13.354-.438-20.031-.685-2.126-.079-2.507.76-2.479,2.644.1,6.511.037,13.024.037,19.536,0,6.715-.009,13.431.009,20.147C2559.994-593.6,2559.634-592.272,2561.481-592.338Zm13.308-34.889c6.913.1,12.433,3.326,13.413,9.826,1.44,9.549-3.445,14.58-11.614,15.267-4.988.419-5,.312-5-4.586v-7.931c0-3.152.189-6.319-.057-9.452C2571.324-626.769,2572.346-627.26,2574.788-627.227Z" transform="translate(-127.53 -164.176)" fill="#fff"/>
    <path id="Path_5099" data-name="Path 5099" d="M2261.966-805.849a88.671,88.671,0,0,1,7.98-15.5,116.353,116.353,0,0,1,19.359-24.214c1.386-1.286,1.227-2.08.2-3.465-2.378-3.218-4.626-6.541-6.771-9.92-1.184-1.866-2.045-2.011-3.642-.363-4.919,5.077-9.629,10.31-14.03,15.856-11.749,14.8-19.815,31.421-25.226,50.042,7.007-2.6,12.985-6.045,18.971-9.478C2260.094-803.63,2261.345-804.2,2261.966-805.849Z" transform="translate(-3.061 -77.282)" fill="#fff"/>
    <path id="Path_5100" data-name="Path 5100" d="M2621.75-859.744c-1.123-1.05-1.538-1.018-2.388.314-2.155,3.378-4.422,6.7-6.861,9.876-1.331,1.734-1.187,2.776.368,4.277a97.537,97.537,0,0,1,7.843,8.457,140.164,140.164,0,0,1,19.3,31.173c.394.876.687,1.863,1.764,2.357,6.484,2.973,12.373,7.16,19.462,9.514.263-1.86-.488-3.333-.945-4.837A143.527,143.527,0,0,0,2644.6-832.4,135.1,135.1,0,0,0,2621.75-859.744Z" transform="translate(-147.614 -77.271)" fill="#fff"/>
    <path id="Path_5101" data-name="Path 5101" d="M2326.639-626.435c4.914-1.46,9.437.274,11.84,4.085a2.5,2.5,0,0,0,2.485,1.266c2.849-.022,5.7-.039,8.544,0,1.679.025,1.932-.352,1.444-2.141-2.122-7.788-10.744-14.71-20.61-13.752-6.94-.764-14.539,2.981-18.07,8.26a24.5,24.5,0,0,0-4.075,10.242c-1.294,9.157,2.119,18.916,11.176,23.84,4.178,2.271,8.66,2.351,13.224,2.281,7.639-.117,15.953-5.409,18.3-13.609.537-1.871.374-2.36-1.526-2.307-2.643.074-5.29.056-7.934,0a3.245,3.245,0,0,0-3.189,1.645,9.917,9.917,0,0,1-13.791,2.419c-4.392-3.069-5.042-7.468-4.851-12.215C2319.784-620.732,2323.081-625.378,2326.639-626.435Z" transform="translate(-29.538 -164.143)" fill="#fff"/>
    <path id="Path_5102" data-name="Path 5102" d="M2513.5-902.9c-.024,1.242,1.049,1.51,1.844,1.64,3.789.621,7.286,2.194,10.958,3.185.626.169,1.154.84,1.927.171,4.688-4.063,10.035-7.233,15.506-11.121a141.931,141.931,0,0,0-31.085-9.8A101.039,101.039,0,0,1,2513.5-902.9Z" transform="translate(-109.141 -54.587)" fill="#fff"/>
    <path id="Path_5103" data-name="Path 5103" d="M2372.453-907.612c4.671,2.737,8.876,6.135,13.328,9.18.633.432,1,1.079,2.074.577a55.427,55.427,0,0,1,10.867-3.267c1.2-.287,1.53-.835,1.843-1.965,1.258-4.541-.212-9.285,1.166-13.906.077-1.341-.071-2.37-2-1.523a20.607,20.607,0,0,1-3.481.862,136.293,136.293,0,0,0-23.281,7.669C2371.6-909.382,2370.708-908.634,2372.453-907.612Z" transform="translate(-54.25 -54.587)" fill="#fff"/>
    <path id="Path_5104" data-name="Path 5104" d="M2406.791-601.759c1.828,2.715,5.358,4.229,7.83,2.662,3.435-2.176,7.043-1.978,10.742-1.924h1.827c6.764,0,6.712,0,6.3-6.679-.09-1.466-.566-1.919-1.977-1.89-3.346.07-6.7.029-10.044.017-1.891-.006-3.556-.035-5.309-1.459-2.562-2.08-6.3-1.164-8.64,1.422A6.91,6.91,0,0,0,2406.791-601.759Z" transform="translate(-67.627 -173.823)" fill="#fff"/>
    <path id="Path_5105" data-name="Path 5105" d="M2504.923-609.589c-4.632-.289-9.434,1.238-13.86-1.72-2.455-1.64-6.118-.61-7.98,1.572-1.669,1.955-1.62,6.412.1,8.765,1.5,2.057,5.17,3.306,7.514,1.7,3.275-2.242,6.708-1.551,10.143-1.733,2.036,0,4.073-.064,6.1.026,1.473.066,2.024-.514,1.905-1.948-.076-.909,0-1.83-.014-2.746C2508.767-610.127,2509.361-609.311,2504.923-609.589Z" transform="translate(-97.168 -173.847)" fill="#fff"/>
    <path id="Path_5106" data-name="Path 5106" d="M2648.549-705.606c-3.2-1.4-6.526-2.514-9.8-3.754-4.327-1.641-5.608-1.259-9.4,3.078l13.857,5.36c-5.054,3.311-9.663,6.311-14.249,9.348-1.08.716-3.148,1.366-1.41,3.032,1.237,1.184,1.885,4.256,4.951,2.084,5.554-3.935,11.226-7.721,17.024-11.284,2.336-1.435,1.745-3.355,1.869-5.285C2651.525-705.063,2649.672-705.117,2648.549-705.606Z" transform="translate(-153.557 -135.686)" fill="#fff"/>
    <path id="Path_5107" data-name="Path 5107" d="M2411.211-569.733c6.209-.078,12.419-.031,18.628-.031,7.159,0,7.109,0,6.636-7.3-.1-1.491-.608-1.9-2-1.876-3.867.065-7.735.023-11.6.021h-7.329c-6.906,0-6.836,0-6.644,7C2408.944-570.137,2409.548-569.712,2411.211-569.733Z" transform="translate(-68.774 -186.746)" fill="#fff"/>
    <path id="Path_5108" data-name="Path 5108" d="M2410.81-627.75c3.867-.068,7.736-.023,11.6-.022h7.329c6.919,0,6.854,0,6.674-6.965-.045-1.747-.578-2.25-2.282-2.226-6.208.084-12.419.033-18.628.032-7.158,0-7.112,0-6.667,7.272C2408.93-628.2,2409.381-627.725,2410.81-627.75Z" transform="translate(-68.711 -164.185)" fill="#fff"/>
    <path id="Path_5109" data-name="Path 5109" d="M2486.969-569.756c3.765-.061,7.532-.021,11.3-.02h7.024c6.74,0,6.643,0,6.626-6.717,0-2.115-.771-2.511-2.657-2.478-5.9.1-11.807.036-17.712.036-6.74,0-6.739,0-6.57,6.718a4.2,4.2,0,0,1,0,.61C2484.79-570.065,2485.6-569.734,2486.969-569.756Z" transform="translate(-98.364 -186.735)" fill="#fff"/>
    <path id="Path_5110" data-name="Path 5110" d="M2511.9-634.944c-.076-1.678-.694-2.035-2.188-2.005-3.765.074-7.532.024-11.3.024h-7.023c-6.535,0-6.428,0-6.477,6.565-.017,2.251.782,2.68,2.813,2.638,5.8-.121,11.6-.043,17.405-.043C2512.287-627.766,2512.223-627.763,2511.9-634.944Z" transform="translate(-98.354 -164.19)" fill="#fff"/>
    <path id="Path_5111" data-name="Path 5111" d="M2597.445-676.423c-.877,2.574,1.318,2.617,2.027,2.491,1.229-.218,3.04,2.656,3.877-.933,1.791-7.674,3.25-15.335,2.932-22.082-.07-5.006-.138-8.824-.547-12.665-.518-4.873-.356-4.92-4.994-4.483-1.792.169-1.682.629-1.433,2.241.719,4.66,1.561,9.417,1.321,14.082C2600.258-690.591,2599.791-683.309,2597.445-676.423Z" transform="translate(-142.033 -134.127)" fill="#fff"/>
    <path id="Path_5112" data-name="Path 5112" d="M2293.883-708.675c-.049-5.626-5.588-9.9-9.527-9.274a9,9,0,0,0-9.363,9.186,9.257,9.257,0,0,0,9.48,9.525A9.641,9.641,0,0,0,2293.883-708.675Zm-12.709-.02c.091-1.964,1.384-3.043,3.381-3.136,2.144-.1,2.424,1.752,3.242,2.894-.648,2.067-1.839,3.68-3.791,3.614A3.079,3.079,0,0,1,2281.174-708.7Z" transform="translate(-16.729 -132.671)" fill="#fff"/>
    <path id="Path_5113" data-name="Path 5113" d="M2324.343-675.807c.666,3.185,2.558,2.134,4.386,1.8,1.983-.356,2.233-1.455,1.666-3.27a76.709,76.709,0,0,1-2.969-19.549,55.047,55.047,0,0,1,1.2-14.112c.715-3.314-1.585-3.563-3.715-3.852-2.535-.343-2.111,1.7-2.419,3.236-.849,4.213-.513,8.466-.635,14.673C2321.344-691.018,2322.751-683.417,2324.343-675.807Z" transform="translate(-34.911 -133.91)" fill="#fff"/>
    <path id="Path_5114" data-name="Path 5114" d="M2638.114-641.956c.408.446.8,1.325,1.706.719,1.611-1.077,1.966-6.024.631-7.529-4.41-4.966-8.611-10.13-13.226-14.9-2.685-2.773-4.737-6.211-8.376-8.713a13.663,13.663,0,0,1-.31,3.322c-1.021,2.66-.36,4.568,1.465,6.828,1.771,2.192,3.831,4.107,5.6,6.3C2629.512-651.057,2633.892-646.568,2638.114-641.956Z" transform="translate(-150.127 -150.416)" fill="#fff"/>
    <path id="Path_5115" data-name="Path 5115" d="M2295.458-676.957c-.019-2.194-.007-4.389-.007-7.19-4.34,4.408-9.024,6.832-14.716,6.86-5.757.029-10.151-3.006-14.417-6.686a20.561,20.561,0,0,1,.4,5.766c-.283,1.9.61,3.006,2.135,3.839a24.647,24.647,0,0,0,25.666-.914A1.754,1.754,0,0,0,2295.458-676.957Z" transform="translate(-13.356 -145.839)" fill="#fff"/>
    <path id="Path_5116" data-name="Path 5116" d="M2656.217-666.594c0-4.734-3.461-8.587-7.752-8.18-4.9.465-8.212,3.981-7.52,7.718-.793,4.222,3.458,8.2,7.659,8.091A7.581,7.581,0,0,0,2656.217-666.594Zm-6.127.038a1.536,1.536,0,0,1-1.68,1.426c-1.082-.22-1.375-.976-1.346-2a1.357,1.357,0,0,1,1.631-1.316A1.456,1.456,0,0,1,2650.089-666.556Z" transform="translate(-158.989 -149.472)" fill="#fff"/>
    <path id="Path_5117" data-name="Path 5117" d="M2315.253-817.392a18.638,18.638,0,0,1,15.691,9.7c1.356,2.69,2.577,3.457,5.431,2.6,1.7-.512,2.173-.8,1.463-2.567a23.83,23.83,0,0,0-8.435-10.988,21.828,21.828,0,0,0-10.153-4.221c-2.321-.237-3.011,2.119-4.525,3.18-.946.663-2.747,1.136-2.3,2.376C2312.943-815.858,2314.282-817.8,2315.253-817.392Z" transform="translate(-31.256 -91.89)" fill="#fff"/>
    <path id="Path_5118" data-name="Path 5118" d="M2595.249-825.48c-.9-.848-1.4-1.09-2.354-.058-5.547,5.974-11.162,11.885-16.874,17.942,4.343,2.333,7.395,1.481,10.25-1.992,2.755-3.351,6.116-6.2,9.169-9.312C2598.545-822.061,2598.472-822.439,2595.249-825.48Z" transform="translate(-133.781 -90.596)" fill="#fff"/>
    <path id="Path_5119" data-name="Path 5119" d="M2300.96-791.578c.165,2.1.709,3.317,3.1,1.853a16.451,16.451,0,0,1,3.39-1.182c-.939-2.157-.943-4.09,1.286-5.426a2.626,2.626,0,0,1,3.849,1.258c1.669,3.775,3.9.982,5.888.772.79-.084.835-.75.737-1.4-.639-4.252-6.716-8.109-10.872-6.9C2302.5-800.909,2300.469-797.864,2300.96-791.578Z" transform="translate(-26.799 -99.69)" fill="#fff"/>
    <path id="Path_5120" data-name="Path 5120" d="M2598.269-792.874c5.921,1.438,11.645,3.5,17.433,5.36,2.119.682,4.075,2.192,6.73,1.9a16.052,16.052,0,0,1-.962-2.858c-.354-2.858-1.862-4.3-4.715-4.923a82.576,82.576,0,0,1-12.369-3.468c-2.985-1.162-4.806-.526-6.781,1.731C2596.289-793.632,2596.834-793.223,2598.269-792.874Z" transform="translate(-141.883 -101.787)" fill="#fff"/>
    <path id="Path_5121" data-name="Path 5121" d="M2270.526-658.778c.815,4.1,1.925,8.151,3.013,12.2.151.559.414,1.844,1.623.867,3.479-2.813,6.96-5.624,10.838-8.757-5.05-1.834-9.372-3.388-13.681-4.98C2271.448-659.776,2270.129-660.782,2270.526-658.778Z" transform="translate(-14.964 -155.231)" fill="#fff"/>
    <path id="Path_5122" data-name="Path 5122" d="M2618.007-694.489c-.046,2.781,1.2,4.07,4,4.125,3.083.061,4.551-1.319,4.548-4.279,0-2.657-1.433-4.166-4.043-4.267C2619.6-699.023,2618.057-697.511,2618.007-694.489Z" transform="translate(-150.107 -140.096)" fill="#fff"/>
    <path id="Path_5123" data-name="Path 5123" d="M2618.075-718.512c-1.206.225-1.342,1.064-1,1.733.776,1.535.26,3.193.807,5.228,4.071-3.225,8.318-5.57,12.2-9.445C2625.628-720.064,2621.865-719.22,2618.075-718.512Z" transform="translate(-149.681 -131.51)" fill="#fff"/>
    <path id="Path_5124" data-name="Path 5124" d="M2413.1-870.279v-10.747l-8.85,3.317C2407.924-875.794,2409.721-872.586,2413.1-870.279Z" transform="translate(-66.991 -69.284)" fill="#fff"/>
    <path id="Path_5125" data-name="Path 5125" d="M2658.3-719.98c.223-2.684-1.638-3.729-3.7-3.736-2.124-.007-3.651,1.191-3.677,3.813s1.462,3.659,3.609,3.944C2656.7-715.669,2658.332-717.567,2658.3-719.98Z" transform="translate(-162.905 -130.453)" fill="#fff"/>
    <path id="Path_5126" data-name="Path 5126" d="M2307.487-652.586c2.277.21,3.911-.383,3.848-3.228-.056-2.6-1.356-4.156-3.736-4.075-2.45.084-3.572,1.417-3.635,3.876S2304.929-652.4,2307.487-652.586Z" transform="translate(-27.994 -155.27)" fill="#fff"/>
    <path id="Path_5127" data-name="Path 5127" d="M2609.23-807.176c.275,2.147,1.456,3.621,3.942,3.6a3.65,3.65,0,0,0,3.814-4.006c-.154-2.242-1.515-3.356-3.764-3.347C2610.743-810.963,2608.941-809.424,2609.23-807.176Z" transform="translate(-146.682 -96.541)" fill="#fff"/>
    <path id="Path_5128" data-name="Path 5128" d="M2517.2-881.927c-2.7-.193-3.224,1.427-3.281,3.831-.068,2.827,1.533,3.5,3.808,3.477,2.308-.023,3.506-1.307,3.564-3.61C2521.361-880.955,2519.869-882.025,2517.2-881.927Z" transform="translate(-109.633 -68.928)" fill="#fff"/>
  </g>
</svg>
